<svg version="1.1" viewBox="0 0 96 96" xmlns="http://www.w3.org/2000/svg" xmlns:xlink="http://www.w3.org/1999/xlink" id="Icons_Kayak" overflow="hidden"><path d=" M 41.9 47.5 C 39.2 47.1 36.6 46.2 34.3 44.8 C 33.6 44.3 32.8 44.1 31.9 44 L 7.4 44 C 6 44 4.8 44.8 4.3 46 C 3.8 47.3 4 48.7 5 49.7 C 11.7 56.3 15.1 60 24.6 60 L 36.6 60 L 41.9 47.5 Z"/><path d=" M 38.5 77.9 L 37 81.5 C 36.7 82.5 35.6 83.1 34.5 82.9 L 33 82.3 C 32.1 81.8 31.7 80.5 32.3 79.6 L 33.8 76 C 35.1 73.3 38.6 70.8 38.6 70.8 L 38.7 70.7 L 38.8 70.6 C 38.8 70.6 38.8 70.6 38.8 70.7 L 38.8 70.8 C 38.8 70.8 39.5 75 38.5 77.9 Z M 54.8 26.1 L 56.3 22.5 C 56.6 21.5 57.7 20.9 58.8 21.1 L 60.3 21.7 C 61.2 22.2 61.6 23.4 61 24.4 L 59.5 28 C 58.2 30.7 54.7 33.2 54.7 33.2 L 54.6 33.3 L 54.5 33.3 C 54.5 33.3 54.5 33.2 54.5 33.2 L 54.5 33.1 C 54.4 33.2 53.7 29 54.8 26.1 Z M 88.6 44 L 64.1 44 C 63.3 44 62.4 44.3 61.7 44.8 C 59.7 46 57.5 46.9 55.2 47.3 C 53.7 47.6 52.1 47.8 50.5 48 L 55.4 36.4 C 55.8 36.3 56.1 36.1 56.4 35.8 C 56.9 35.4 60.6 32.7 62.2 29.4 L 63.8 25.7 C 65 23.2 63.9 20.2 61.4 19.1 L 59.9 18.5 C 57.3 17.6 54.4 18.9 53.4 21.5 L 51.9 25 C 50.6 28.6 51.2 33 51.4 33.6 C 51.4 34 51.5 34.3 51.7 34.7 L 37.8 67.7 C 37.4 67.8 37.1 68 36.8 68.3 C 36.3 68.7 32.6 71.4 31 74.7 L 29.4 78.4 C 28.2 80.9 29.3 83.9 31.8 85 L 33.3 85.6 C 35.9 86.5 38.8 85.2 39.8 82.6 L 41.3 78.9 C 42.6 75.3 42 70.9 41.8 70.3 C 41.8 69.9 41.7 69.6 41.5 69.2 L 45.4 59.9 L 71.3 59.9 C 80.8 59.9 84.2 56.2 90.9 49.6 C 91.9 48.7 92.1 47.2 91.6 46 C 91.2 44.8 90 44 88.6 44 Z"/></svg>